<svg xmlns="http://www.w3.org/2000/svg"  viewBox="0 0 100 100" width="100px" height="100px"><path d="M 68.521484 16.029297 C 66.655484 15.968297 65.012094 16.63775 63.746094 17.96875 C 60.043094 21.90775 63.956234 25.610406 67.740234 29.191406 C 68.573234 29.980406 69.436813 30.794672 70.257812 31.638672 C 74.801813 36.287672 77.513672 42.568453 77.513672 48.439453 C 77.513672 52.737453 75.659578 56.876266 74.642578 58.822266 C 73.299578 57.191266 72.532516 55.412828 71.728516 53.548828 L 71.568359 53.179688 C 71.560359 53.149688 71.549109 53.119797 71.537109 53.091797 C 70.383109 50.193797 69.556656 49.034266 68.597656 47.822266 C 65.627656 44.035266 60.003875 43.814062 54.921875 47.289062 C 52.269875 49.104062 48.898078 52.948531 45.330078 57.019531 C 41.725078 61.132531 38.012484 65.370688 35.271484 67.179688 C 34.244484 63.578687 33.051203 54.146422 35.033203 45.107422 C 36.961203 36.315422 38.931141 24.985547 37.369141 20.935547 C 36.193141 17.921547 33.930297 16.165141 31.154297 16.119141 C 28.213297 16.122141 24.834844 17.836875 21.589844 21.046875 C 15.781844 26.788875 9 38.910875 9 54.171875 C 9 54.645875 9.0191094 55.118734 9.0371094 55.552734 C 9.0371094 55.866734 9.0577031 56.174797 9.0957031 56.466797 C 9.0987031 56.683797 9.1157187 56.874516 9.1367188 57.103516 C 9.1477187 57.241516 9.1636875 57.375766 9.1796875 57.509766 C 9.1926875 57.615766 9.20475 57.721812 9.21875 57.882812 C 9.29675 58.497812 9.3957188 59.132328 9.5117188 59.736328 C 9.5907187 60.176328 9.6706719 60.595281 9.7636719 60.988281 C 9.8616719 61.465281 9.9796094 61.922766 10.099609 62.384766 C 10.228609 62.869766 10.480719 63.719062 10.636719 64.164062 C 11.081719 65.435062 11.838859 67.118734 12.380859 68.302734 C 12.692859 68.932734 13.025375 69.541719 13.359375 70.136719 C 13.439375 70.275719 13.936422 71.088516 14.107422 71.353516 C 14.237422 71.552516 14.705438 72.260156 14.898438 72.535156 C 15.261437 73.049156 15.768437 73.736547 16.023438 74.060547 C 16.150438 74.221547 16.617906 74.816516 16.753906 74.978516 C 17.031906 75.311516 17.320375 75.636125 17.609375 75.953125 C 17.847375 76.265125 18.314422 76.755484 19.232422 77.646484 C 19.629422 78.025484 20.025453 78.404 20.439453 78.75 C 20.561453 78.886 20.682047 78.981203 20.748047 79.033203 L 20.849609 79.126953 C 20.984609 79.250953 21.125438 79.373516 21.273438 79.478516 C 21.681438 79.829516 22.087187 80.159078 22.492188 80.455078 C 23.406188 81.164078 24.392344 81.844891 25.402344 82.462891 C 25.683344 82.642891 25.98325 82.824094 26.28125 82.996094 L 26.470703 83.099609 C 26.635703 83.192609 26.808875 83.28975 26.921875 83.34375 C 27.302875 83.57075 27.658844 83.754625 27.964844 83.890625 C 29.304844 84.574625 30.750328 85.175969 32.236328 85.667969 C 32.575328 85.787969 32.913313 85.887859 33.320312 86.005859 C 33.398313 86.023859 33.478687 86.047359 33.554688 86.068359 L 33.820312 86.142578 C 34.112312 86.219578 34.404672 86.29775 34.638672 86.34375 C 35.033672 86.44775 35.429531 86.529031 35.769531 86.582031 C 36.059531 86.644031 36.328547 86.686234 36.685547 86.740234 C 36.907547 86.777234 37.117344 86.812219 37.277344 86.824219 C 37.549344 86.866219 37.800531 86.886344 38.019531 86.902344 C 38.327531 86.943344 38.615719 86.965234 39.011719 86.990234 C 39.442719 87.008234 39.873688 87.027344 40.304688 87.027344 C 41.478688 87.027344 42.646719 86.888141 43.761719 86.619141 C 44.160719 86.529141 44.539703 86.420547 44.845703 86.310547 C 46.548703 85.785547 48.153953 84.959156 49.751953 83.785156 C 50.596953 83.167156 51.434953 82.453344 52.251953 81.652344 C 52.799953 81.100344 53.335797 80.521594 53.841797 79.933594 C 54.132797 79.596594 54.402828 79.251391 54.673828 78.900391 L 54.84375 78.683594 C 54.88875 78.627594 54.984687 78.483094 55.054688 78.371094 L 55.150391 78.248047 C 57.582391 74.993047 59.462922 71.144094 60.544922 68.121094 C 63.651922 74.000094 68.048828 76.867188 73.923828 76.867188 C 82.700828 76.867188 91 63.267859 91 48.880859 C 91 38.219859 86.274547 30.347094 82.310547 25.621094 C 77.098547 19.384094 72.459484 16.156297 68.521484 16.029297 z M 68.457031 18.027344 C 70.755031 18.102344 74.759344 19.702297 80.777344 26.904297 C 84.528344 31.377297 89 38.820859 89 48.880859 C 89 49.247638 88.972459 49.612392 88.960938 49.978516 C 88.227538 53.757717 86.027187 57.340755 84.158203 59.222656 C 83.963203 59.418656 83.964156 59.735687 84.160156 59.929688 C 84.258156 60.026688 84.386672 60.074219 84.513672 60.074219 C 84.642672 60.074219 84.769234 60.026734 84.865234 59.927734 C 86.114576 58.670232 87.505507 56.697741 88.554688 54.410156 C 86.861973 65.38565 80.452989 74.86695 73.927734 74.865234 C 68.119734 74.865234 64.096578 71.718031 61.267578 64.957031 C 61.100578 64.558031 60.694672 64.317703 60.263672 64.345703 C 59.831672 64.382703 59.470094 64.691281 59.371094 65.113281 C 58.878094 67.207281 57.028734 72.396828 53.552734 77.048828 L 53.449219 77.179688 C 53.416219 77.219688 53.379516 77.276266 53.353516 77.322266 C 53.333516 77.356266 53.295391 77.413453 53.275391 77.439453 L 53.115234 77.648438 C 52.235768 78.498332 49.843041 79.519423 47.369141 79.734375 C 47.094141 79.757375 46.890062 80.001391 46.914062 80.275391 C 46.937062 80.536391 47.155109 80.732422 47.412109 80.732422 C 47.426109 80.732422 47.440078 80.731469 47.455078 80.730469 C 48.785812 80.61498 50.083529 80.281004 51.189453 79.857422 C 51.072178 79.979756 50.961547 80.113458 50.84375 80.232422 C 50.10475 80.955422 49.340313 81.608875 48.570312 82.171875 C 47.153312 83.211875 45.742797 83.938156 44.216797 84.410156 C 43.930797 84.513156 43.626594 84.597922 43.308594 84.669922 C 42.331594 84.904922 41.320687 85.023438 40.304688 85.023438 C 39.901688 85.023438 39.498594 85.007281 39.058594 84.988281 C 38.793594 84.971281 38.547469 84.953109 38.230469 84.912109 C 38.008469 84.895109 37.803672 84.879891 37.513672 84.837891 C 37.342672 84.823891 37.185578 84.793625 37.017578 84.765625 C 37.010578 84.764625 36.91325 84.749047 36.90625 84.748047 C 36.66125 84.712047 36.436672 84.677234 36.138672 84.615234 C 35.809672 84.562234 35.48075 84.493578 35.09375 84.392578 C 34.84175 84.341578 34.58925 84.273406 34.28125 84.191406 L 34.111328 84.144531 C 33.999328 84.112531 33.882312 84.079406 33.820312 84.066406 C 33.516312 83.976406 33.211719 83.886484 32.886719 83.771484 C 31.475719 83.305484 30.125125 82.743031 28.828125 82.082031 C 28.520125 81.944031 28.230859 81.789937 27.880859 81.585938 C 27.735859 81.511938 27.589219 81.429563 27.449219 81.351562 L 27.261719 81.248047 C 27.009719 81.104047 26.738797 80.940625 26.466797 80.765625 C 25.499797 80.173625 24.573313 79.537469 23.695312 78.855469 C 23.297313 78.564469 22.918063 78.254734 22.539062 77.927734 C 22.508063 77.902734 22.476359 77.877469 22.443359 77.855469 C 22.355359 77.796469 22.278219 77.720438 22.199219 77.648438 L 22.033203 77.501953 C 21.996203 77.471953 21.956688 77.443062 21.929688 77.414062 C 21.884688 77.358062 21.833344 77.307719 21.777344 77.261719 C 21.377344 76.932719 20.996141 76.565125 20.619141 76.203125 C 20.159141 75.756125 19.306344 74.853688 19.152344 74.679688 C 19.135344 74.658687 19.118516 74.639187 19.103516 74.617188 C 18.828516 74.316188 18.552109 74.006406 18.287109 73.691406 C 18.159109 73.538406 17.719313 72.975156 17.570312 72.785156 C 17.355313 72.512156 16.878109 71.864859 16.537109 71.380859 C 16.353109 71.119859 15.908109 70.447719 15.787109 70.261719 C 15.632109 70.021719 15.171563 69.272437 15.101562 69.148438 C 14.785563 68.587437 14.4715 68.009453 14.1875 67.439453 C 14.113496 67.277915 14.069621 67.171262 14 67.017578 C 14.718408 67.633184 15.461205 68.194289 16.230469 68.681641 C 16.313469 68.733641 16.405094 68.759766 16.496094 68.759766 C 16.661094 68.759766 16.823922 68.677344 16.919922 68.527344 C 17.067922 68.294344 16.998625 67.985891 16.765625 67.837891 C 15.41823 66.985542 14.148911 65.902626 12.972656 64.638672 C 12.807973 64.231975 12.633628 63.809843 12.525391 63.5 C 12.390391 63.116 12.151156 62.307047 12.035156 61.873047 C 11.925156 61.448047 11.814797 61.023734 11.716797 60.552734 C 11.624797 60.167734 11.553516 59.781188 11.478516 59.367188 C 11.367516 58.793188 11.275031 58.201687 11.207031 57.679688 C 11.196031 57.541688 11.180063 57.407438 11.164062 57.273438 C 11.151063 57.166437 11.139 57.061625 11.125 56.890625 C 11.11 56.727625 11.095703 56.575531 11.095703 56.394531 C 11.095703 56.347531 11.091938 56.299906 11.085938 56.253906 C 11.054937 56.031906 11.038109 55.789766 11.037109 55.509766 C 11.019109 55.063766 11 54.617875 11 54.171875 C 11 39.527875 17.462047 27.941797 22.998047 22.466797 C 25.837047 19.658797 28.700406 18.117188 31.066406 18.117188 L 31.128906 18.117188 C 33.073906 18.149187 34.628859 19.40725 35.505859 21.65625 C 36.568859 24.41125 35.686031 32.802734 33.082031 44.677734 C 30.736852 55.371832 32.630276 66.349659 33.794922 69.003906 C 32.669169 69.423174 31.51396 69.761657 30.347656 70.005859 C 30.077656 70.062859 29.903938 70.326656 29.960938 70.597656 C 30.010938 70.832656 30.217219 70.994141 30.449219 70.994141 C 30.482219 70.994141 30.517734 70.992375 30.552734 70.984375 C 31.782325 70.727542 32.999056 70.368218 34.185547 69.923828 C 34.433514 70.552332 35.673729 73.615534 37.134766 75.494141 C 39.069766 77.982141 41.088687 79.552063 43.304688 80.289062 C 43.357688 80.306063 43.410891 80.314453 43.462891 80.314453 C 43.671891 80.314453 43.8675 80.181656 43.9375 79.972656 C 44.0245 79.709656 43.881141 79.426844 43.619141 79.339844 C 41.596141 78.666844 39.734828 77.207859 37.923828 74.880859 C 36.553796 73.118998 35.335827 70.109439 35.115234 69.552734 C 35.126489 69.547985 35.139277 69.55009 35.150391 69.544922 C 38.318391 68.055922 42.455937 63.333937 46.835938 58.335938 C 50.164937 54.537937 53.607781 50.6105 56.050781 48.9375 C 60.286781 46.0405 64.696391 46.085641 67.025391 49.056641 C 67.406305 49.538756 67.756179 50.018931 68.113281 50.595703 C 67.505511 50.470734 66.856206 50.622591 66.181641 51.052734 C 65.259641 51.641734 64.330969 52.72725 63.417969 54.28125 C 63.278969 54.52025 63.357703 54.824844 63.595703 54.964844 C 63.675703 55.011844 63.761656 55.033203 63.847656 55.033203 C 64.019656 55.033203 64.18725 54.946109 64.28125 54.787109 C 65.11225 53.371109 65.933703 52.397531 66.720703 51.894531 C 67.191703 51.595531 67.596078 51.492172 67.955078 51.576172 C 68.505221 51.706569 68.920573 52.273886 69.228516 52.779297 C 69.365408 53.089953 69.495364 53.366731 69.644531 53.738281 C 69.656531 53.785281 69.671406 53.831953 69.691406 53.876953 L 69.892578 54.337891 C 70.894578 56.660891 71.929672 59.061563 74.138672 61.226562 C 74.15532 61.242978 74.17968 61.246624 74.197266 61.261719 C 75.291061 62.243191 76.563959 62.657053 77.455078 62.828125 C 77.487078 62.834125 77.517828 62.837891 77.548828 62.837891 C 77.783828 62.837891 77.994062 62.671641 78.039062 62.431641 C 78.091063 62.159641 77.913578 61.897703 77.642578 61.845703 C 77.177807 61.756628 76.407737 61.543525 75.644531 61.087891 C 75.655503 61.072591 75.673437 61.064815 75.683594 61.048828 C 75.840594 60.801828 79.515625 54.9205 79.515625 48.4375 C 79.515625 42.0555 76.589453 35.254188 71.689453 30.242188 C 70.841453 29.371187 69.965187 28.540281 69.117188 27.738281 C 64.772188 23.626281 63.088172 21.588797 65.201172 19.341797 C 66.071172 18.427797 67.163031 18.014344 68.457031 18.027344 z M 62.357422 57.046875 C 62.162375 57.046453 61.977484 57.160312 61.896484 57.351562 C 61.728484 57.748562 61.565203 58.152547 61.408203 58.560547 C 61.092203 59.383547 60.769266 60.317891 60.447266 61.337891 C 60.364266 61.601891 60.512391 61.881844 60.775391 61.964844 C 60.824391 61.979844 60.875781 61.988281 60.925781 61.988281 C 61.138781 61.988281 61.335344 61.851672 61.402344 61.638672 C 61.718344 60.638672 62.03475 59.724922 62.34375 58.919922 C 62.49675 58.521922 62.654359 58.128188 62.818359 57.742188 C 62.926359 57.487187 62.806734 57.194891 62.552734 57.087891 C 62.488984 57.060891 62.422438 57.047016 62.357422 57.046875 z M 81.488281 61.265625 C 81.423406 61.268781 81.359375 61.284453 81.296875 61.314453 C 80.662875 61.619453 80.026297 61.816344 79.404297 61.902344 C 79.131297 61.939344 78.938563 62.192797 78.976562 62.466797 C 79.011563 62.716797 79.226656 62.898438 79.472656 62.898438 C 79.494656 62.898437 79.516063 62.895578 79.539062 62.892578 C 80.264062 62.792578 81.000516 62.565844 81.728516 62.214844 C 81.977516 62.095844 82.082891 61.797828 81.962891 61.548828 C 81.872891 61.362828 81.682906 61.256156 81.488281 61.265625 z M 19.371094 69.230469 C 19.176891 69.2345 18.990562 69.354125 18.914062 69.546875 C 18.813062 69.802875 18.938312 70.093312 19.195312 70.195312 C 20.213313 70.599313 21.278328 70.910094 22.361328 71.121094 C 22.394328 71.127094 22.425031 71.130859 22.457031 71.130859 C 22.691031 71.130859 22.900266 70.964562 22.947266 70.726562 C 22.999266 70.454562 22.823734 70.191672 22.552734 70.138672 C 21.530734 69.940672 20.525453 69.646625 19.564453 69.265625 C 19.501203 69.239875 19.435828 69.229125 19.371094 69.230469 z M 27.402344 70.417969 C 26.767344 70.461969 26.124094 70.478938 25.496094 70.460938 C 25.258094 70.469938 24.991375 70.668312 24.984375 70.945312 C 24.977375 71.222313 25.194703 71.452938 25.470703 71.460938 C 25.650703 71.465937 25.832672 71.466797 26.013672 71.466797 C 26.499672 71.466797 26.988609 71.450016 27.474609 71.416016 C 27.749609 71.397016 27.9575 71.157813 27.9375 70.882812 C 27.9185 70.606812 27.682344 70.394969 27.402344 70.417969 z"/></svg>